<mxfile host="app.diagrams.net" modified="2023-03-30T09:44:48.803Z" agent="Mozilla/5.0 (Windows NT 10.0; Win64; x64) AppleWebKit/537.36 (KHTML, like Gecko) Chrome/111.0.0.0 Safari/537.36" etag="dxwCwa8FxQWk_w4CAtnC" version="21.1.1" type="github">
  <diagram name="Page-1" id="fc2ac565-0d4e-3f0d-88b0-a54af1634ed7">
    <mxGraphModel dx="1017" dy="572" grid="1" gridSize="10" guides="1" tooltips="1" connect="0" arrows="1" fold="1" page="1" pageScale="1.5" pageWidth="1169" pageHeight="827" background="none" math="0" shadow="0">
      <root>
        <mxCell id="0" style=";html=1;" />
        <mxCell id="1" style=";html=1;" parent="0" />
        <mxCell id="75" value="Task 1" style="align=left;strokeColor=#CCCCCC;html=1;" parent="1" vertex="1">
          <mxGeometry x="297.0000000000003" y="149.99999999999977" width="319.9999999999997" height="20.000000000000014" as="geometry" />
        </mxCell>
        <mxCell id="80" value="Task 2" style="align=left;strokeColor=#CCCCCC;html=1;" parent="1" vertex="1">
          <mxGeometry x="297" y="170.00000000000023" width="320" height="20" as="geometry" />
        </mxCell>
        <mxCell id="85" value="Task 3" style="align=left;strokeColor=#CCCCCC;html=1;" parent="1" vertex="1">
          <mxGeometry x="296.9999999999999" y="190.00000000000023" width="320.0000000000001" height="20" as="geometry" />
        </mxCell>
        <mxCell id="90" value="Task 4" style="align=left;strokeColor=#CCCCCC;html=1;" parent="1" vertex="1">
          <mxGeometry x="296.9999999999999" y="210.00000000000045" width="320.0000000000001" height="20" as="geometry" />
        </mxCell>
        <mxCell id="95" value="Task 5" style="align=left;strokeColor=#CCCCCC;html=1;" parent="1" vertex="1">
          <mxGeometry x="297.0000000000006" y="230.00000000000068" width="319.9999999999994" height="20" as="geometry" />
        </mxCell>
        <mxCell id="100" value="Task 6" style="align=left;strokeColor=#CCCCCC;html=1;" parent="1" vertex="1">
          <mxGeometry x="297.0000000000006" y="250.00000000000057" width="319.9999999999994" height="20" as="geometry" />
        </mxCell>
        <mxCell id="2" value="Task Name" style="strokeWidth=1;fontStyle=0;html=1;" parent="1" vertex="1">
          <mxGeometry x="297" y="130" width="320" height="20" as="geometry" />
        </mxCell>
        <mxCell id="67c90442a009f359-289" value="Task 6" style="align=left;strokeColor=#CCCCCC;html=1;" parent="1" vertex="1">
          <mxGeometry x="297.0000000000006" y="270.00000000000057" width="319.9999999999994" height="20" as="geometry" />
        </mxCell>
        <mxCell id="67c90442a009f359-290" value="Task 6" style="align=left;strokeColor=#CCCCCC;html=1;" parent="1" vertex="1">
          <mxGeometry x="297.0000000000006" y="290.00000000000057" width="319.9999999999994" height="20" as="geometry" />
        </mxCell>
        <mxCell id="67c90442a009f359-291" value="" style="align=left;strokeColor=#CCCCCC;html=1;" parent="1" vertex="1">
          <mxGeometry x="617" y="150" width="840" height="20" as="geometry" />
        </mxCell>
        <mxCell id="4" value="Jan" style="strokeWidth=1;fontStyle=0;html=1;" parent="1" vertex="1">
          <mxGeometry x="617" y="130" width="70" height="20" as="geometry" />
        </mxCell>
        <mxCell id="67c90442a009f359-278" value="Feb" style="strokeWidth=1;fontStyle=0;html=1;" parent="1" vertex="1">
          <mxGeometry x="687" y="130" width="70" height="20" as="geometry" />
        </mxCell>
        <mxCell id="67c90442a009f359-279" value="Mar" style="strokeWidth=1;fontStyle=0;html=1;" parent="1" vertex="1">
          <mxGeometry x="757" y="130" width="70" height="20" as="geometry" />
        </mxCell>
        <mxCell id="67c90442a009f359-280" value="Apr" style="strokeWidth=1;fontStyle=0;html=1;" parent="1" vertex="1">
          <mxGeometry x="827" y="130" width="70" height="20" as="geometry" />
        </mxCell>
        <mxCell id="67c90442a009f359-281" value="May" style="strokeWidth=1;fontStyle=0;html=1;" parent="1" vertex="1">
          <mxGeometry x="897" y="130" width="70" height="20" as="geometry" />
        </mxCell>
        <mxCell id="67c90442a009f359-282" value="June" style="strokeWidth=1;fontStyle=0;html=1;" parent="1" vertex="1">
          <mxGeometry x="967" y="130" width="70" height="20" as="geometry" />
        </mxCell>
        <mxCell id="67c90442a009f359-283" value="July" style="strokeWidth=1;fontStyle=0;html=1;" parent="1" vertex="1">
          <mxGeometry x="1037" y="130" width="70" height="20" as="geometry" />
        </mxCell>
        <mxCell id="67c90442a009f359-284" value="Aug" style="strokeWidth=1;fontStyle=0;html=1;" parent="1" vertex="1">
          <mxGeometry x="1107" y="130" width="70" height="20" as="geometry" />
        </mxCell>
        <mxCell id="67c90442a009f359-285" value="Sept" style="strokeWidth=1;fontStyle=0;html=1;" parent="1" vertex="1">
          <mxGeometry x="1177" y="130" width="70" height="20" as="geometry" />
        </mxCell>
        <mxCell id="67c90442a009f359-286" value="Oct" style="strokeWidth=1;fontStyle=0;html=1;" parent="1" vertex="1">
          <mxGeometry x="1247" y="130" width="70" height="20" as="geometry" />
        </mxCell>
        <mxCell id="67c90442a009f359-287" value="Nov" style="strokeWidth=1;fontStyle=0;html=1;" parent="1" vertex="1">
          <mxGeometry x="1317" y="130" width="70" height="20" as="geometry" />
        </mxCell>
        <mxCell id="67c90442a009f359-288" value="Dec" style="strokeWidth=1;fontStyle=0;html=1;" parent="1" vertex="1">
          <mxGeometry x="1387" y="130" width="70" height="20" as="geometry" />
        </mxCell>
        <mxCell id="67c90442a009f359-292" value="" style="align=left;strokeColor=#CCCCCC;html=1;" parent="1" vertex="1">
          <mxGeometry x="617" y="170" width="840" height="20" as="geometry" />
        </mxCell>
        <mxCell id="67c90442a009f359-293" value="" style="align=left;strokeColor=#CCCCCC;html=1;" parent="1" vertex="1">
          <mxGeometry x="617" y="190" width="840" height="20" as="geometry" />
        </mxCell>
        <mxCell id="67c90442a009f359-294" value="" style="align=left;strokeColor=#CCCCCC;html=1;" parent="1" vertex="1">
          <mxGeometry x="617" y="210" width="840" height="20" as="geometry" />
        </mxCell>
        <mxCell id="67c90442a009f359-295" value="" style="align=left;strokeColor=#CCCCCC;html=1;" parent="1" vertex="1">
          <mxGeometry x="617" y="230" width="840" height="20" as="geometry" />
        </mxCell>
        <mxCell id="67c90442a009f359-296" value="" style="align=left;strokeColor=#CCCCCC;html=1;" parent="1" vertex="1">
          <mxGeometry x="617" y="250" width="840" height="20" as="geometry" />
        </mxCell>
        <mxCell id="67c90442a009f359-297" value="" style="align=left;strokeColor=#CCCCCC;html=1;" parent="1" vertex="1">
          <mxGeometry x="617" y="270" width="840" height="20" as="geometry" />
        </mxCell>
        <mxCell id="67c90442a009f359-298" value="" style="align=left;strokeColor=#CCCCCC;html=1;" parent="1" vertex="1">
          <mxGeometry x="617" y="290" width="840" height="20" as="geometry" />
        </mxCell>
        <mxCell id="67c90442a009f359-299" value="pre_upd" style="whiteSpace=wrap;html=1;strokeWidth=2;fillColor=#CCCCCC;gradientColor=none;fontSize=14;align=center;strokeColor=#999999;" parent="1" vertex="1">
          <mxGeometry x="617" y="150" width="113" height="20" as="geometry" />
        </mxCell>
        <mxCell id="67c90442a009f359-300" value="W+=" style="whiteSpace=wrap;html=1;strokeWidth=2;fillColor=#CCCCCC;gradientColor=none;fontSize=14;align=center;strokeColor=#999999;" parent="1" vertex="1">
          <mxGeometry x="730" y="170" width="70" height="20" as="geometry" />
        </mxCell>
        <mxCell id="67c90442a009f359-301" value="" style="whiteSpace=wrap;html=1;strokeWidth=2;fillColor=#CCCCCC;gradientColor=none;fontSize=14;align=center;strokeColor=#999999;" parent="1" vertex="1">
          <mxGeometry x="827" y="190" width="70" height="20" as="geometry" />
        </mxCell>
        <mxCell id="67c90442a009f359-302" value="" style="whiteSpace=wrap;html=1;strokeWidth=2;fillColor=#CCCCCC;gradientColor=none;fontSize=14;align=center;strokeColor=#999999;" parent="1" vertex="1">
          <mxGeometry x="897" y="210" width="210" height="20" as="geometry" />
        </mxCell>
        <mxCell id="67c90442a009f359-303" value="" style="whiteSpace=wrap;html=1;strokeWidth=2;fillColor=#CCCCCC;gradientColor=none;fontSize=14;align=center;strokeColor=#999999;" parent="1" vertex="1">
          <mxGeometry x="1107" y="230" width="140" height="20" as="geometry" />
        </mxCell>
        <mxCell id="67c90442a009f359-304" value="" style="whiteSpace=wrap;html=1;strokeWidth=2;fillColor=#CCCCCC;gradientColor=none;fontSize=14;align=center;strokeColor=#999999;" parent="1" vertex="1">
          <mxGeometry x="1107" y="250" width="210" height="20" as="geometry" />
        </mxCell>
        <mxCell id="67c90442a009f359-305" value="" style="whiteSpace=wrap;html=1;strokeWidth=2;fillColor=#CCCCCC;gradientColor=none;fontSize=14;align=center;strokeColor=#999999;" parent="1" vertex="1">
          <mxGeometry x="1247" y="270" width="140" height="20" as="geometry" />
        </mxCell>
        <mxCell id="67c90442a009f359-306" value="" style="whiteSpace=wrap;html=1;strokeWidth=2;fillColor=#CCCCCC;gradientColor=none;fontSize=14;align=center;strokeColor=#999999;" parent="1" vertex="1">
          <mxGeometry x="1387" y="290" width="70" height="20" as="geometry" />
        </mxCell>
        <mxCell id="31VXppEYrkeVyr3YHQmW-100" value="Task 1" style="align=left;strokeColor=#CCCCCC;html=1;" vertex="1" parent="1">
          <mxGeometry x="490" y="410" width="110" height="20" as="geometry" />
        </mxCell>
        <mxCell id="31VXppEYrkeVyr3YHQmW-101" value="Task 2" style="align=left;strokeColor=#CCCCCC;html=1;" vertex="1" parent="1">
          <mxGeometry x="490" y="430" width="110" height="20" as="geometry" />
        </mxCell>
        <mxCell id="31VXppEYrkeVyr3YHQmW-103" value="" style="align=left;strokeColor=#CCCCCC;html=1;" vertex="1" parent="1">
          <mxGeometry x="600" y="410" width="840" height="20" as="geometry" />
        </mxCell>
        <mxCell id="31VXppEYrkeVyr3YHQmW-116" value="" style="align=left;strokeColor=#CCCCCC;html=1;" vertex="1" parent="1">
          <mxGeometry x="600" y="430" width="840" height="20" as="geometry" />
        </mxCell>
        <mxCell id="31VXppEYrkeVyr3YHQmW-117" value="in_W" style="whiteSpace=wrap;html=1;strokeWidth=2;fillColor=#CCCCCC;gradientColor=none;fontSize=14;align=center;strokeColor=#999999;" vertex="1" parent="1">
          <mxGeometry x="600" y="410" width="60" height="20" as="geometry" />
        </mxCell>
        <mxCell id="31VXppEYrkeVyr3YHQmW-118" value="PRE" style="whiteSpace=wrap;html=1;strokeWidth=2;fillColor=#CCCCCC;gradientColor=none;fontSize=14;align=center;strokeColor=#999999;" vertex="1" parent="1">
          <mxGeometry x="660" y="430" width="60" height="20" as="geometry" />
        </mxCell>
        <mxCell id="31VXppEYrkeVyr3YHQmW-119" value="in_W" style="whiteSpace=wrap;html=1;strokeWidth=2;fillColor=#CCCCCC;gradientColor=none;fontSize=14;align=center;strokeColor=#999999;" vertex="1" parent="1">
          <mxGeometry x="660" y="410" width="60" height="20" as="geometry" />
        </mxCell>
        <mxCell id="31VXppEYrkeVyr3YHQmW-120" value="PRE" style="whiteSpace=wrap;html=1;strokeWidth=2;fillColor=#CCCCCC;gradientColor=none;fontSize=14;align=center;strokeColor=#999999;" vertex="1" parent="1">
          <mxGeometry x="720" y="430" width="60" height="20" as="geometry" />
        </mxCell>
        <mxCell id="31VXppEYrkeVyr3YHQmW-121" value="in_W" style="whiteSpace=wrap;html=1;strokeWidth=2;fillColor=#CCCCCC;gradientColor=none;fontSize=14;align=center;strokeColor=#999999;" vertex="1" parent="1">
          <mxGeometry x="720" y="410" width="60" height="20" as="geometry" />
        </mxCell>
        <mxCell id="31VXppEYrkeVyr3YHQmW-122" value="PRE" style="whiteSpace=wrap;html=1;strokeWidth=2;fillColor=#CCCCCC;gradientColor=none;fontSize=14;align=center;strokeColor=#999999;" vertex="1" parent="1">
          <mxGeometry x="780" y="430" width="60" height="20" as="geometry" />
        </mxCell>
        <mxCell id="31VXppEYrkeVyr3YHQmW-123" value="in_W" style="whiteSpace=wrap;html=1;strokeWidth=2;fillColor=#CCCCCC;gradientColor=none;fontSize=14;align=center;strokeColor=#999999;" vertex="1" parent="1">
          <mxGeometry x="780" y="410" width="60" height="20" as="geometry" />
        </mxCell>
        <mxCell id="31VXppEYrkeVyr3YHQmW-124" value="PRE" style="whiteSpace=wrap;html=1;strokeWidth=2;fillColor=#CCCCCC;gradientColor=none;fontSize=14;align=center;strokeColor=#999999;" vertex="1" parent="1">
          <mxGeometry x="840" y="430" width="60" height="20" as="geometry" />
        </mxCell>
        <mxCell id="31VXppEYrkeVyr3YHQmW-125" value="Task 1" style="align=left;strokeColor=#CCCCCC;html=1;" vertex="1" parent="1">
          <mxGeometry x="280.0000000000003" y="489.9999999999998" width="319.9999999999997" height="20.000000000000014" as="geometry" />
        </mxCell>
        <mxCell id="31VXppEYrkeVyr3YHQmW-126" value="Task 2" style="align=left;strokeColor=#CCCCCC;html=1;" vertex="1" parent="1">
          <mxGeometry x="280" y="510.0000000000002" width="320" height="20" as="geometry" />
        </mxCell>
        <mxCell id="31VXppEYrkeVyr3YHQmW-127" value="Task 3" style="align=left;strokeColor=#CCCCCC;html=1;" vertex="1" parent="1">
          <mxGeometry x="279.9999999999999" y="530.0000000000002" width="320.0000000000001" height="20" as="geometry" />
        </mxCell>
        <mxCell id="31VXppEYrkeVyr3YHQmW-128" value="" style="align=left;strokeColor=#CCCCCC;html=1;" vertex="1" parent="1">
          <mxGeometry x="600" y="490" width="840" height="20" as="geometry" />
        </mxCell>
        <mxCell id="31VXppEYrkeVyr3YHQmW-129" value="" style="align=left;strokeColor=#CCCCCC;html=1;" vertex="1" parent="1">
          <mxGeometry x="600" y="510" width="840" height="20" as="geometry" />
        </mxCell>
        <mxCell id="31VXppEYrkeVyr3YHQmW-130" value="" style="align=left;strokeColor=#CCCCCC;html=1;" vertex="1" parent="1">
          <mxGeometry x="600" y="530" width="840" height="20" as="geometry" />
        </mxCell>
        <mxCell id="31VXppEYrkeVyr3YHQmW-131" value="ge+=" style="whiteSpace=wrap;html=1;strokeWidth=2;fillColor=#CCCCCC;gradientColor=none;fontSize=14;align=center;strokeColor=#999999;" vertex="1" parent="1">
          <mxGeometry x="1036" y="720" width="60" height="40" as="geometry" />
        </mxCell>
        <mxCell id="31VXppEYrkeVyr3YHQmW-132" value="Ie Ii乘法" style="whiteSpace=wrap;html=1;strokeWidth=2;fillColor=#CCCCCC;gradientColor=none;fontSize=14;align=center;strokeColor=#999999;" vertex="1" parent="1">
          <mxGeometry x="1096" y="760" width="60" height="40" as="geometry" />
        </mxCell>
        <mxCell id="31VXppEYrkeVyr3YHQmW-133" value="V_1+=" style="whiteSpace=wrap;html=1;strokeWidth=2;fillColor=#CCCCCC;gradientColor=none;fontSize=14;align=center;strokeColor=#999999;" vertex="1" parent="1">
          <mxGeometry x="1156" y="800" width="60" height="40" as="geometry" />
        </mxCell>
        <mxCell id="31VXppEYrkeVyr3YHQmW-134" value="ge+=" style="whiteSpace=wrap;html=1;strokeWidth=2;fillColor=#CCCCCC;gradientColor=none;fontSize=14;align=center;strokeColor=#999999;" vertex="1" parent="1">
          <mxGeometry x="1096" y="720" width="60" height="40" as="geometry" />
        </mxCell>
        <mxCell id="31VXppEYrkeVyr3YHQmW-135" value="Ie Ii乘法" style="whiteSpace=wrap;html=1;strokeWidth=2;fillColor=#CCCCCC;gradientColor=none;fontSize=14;align=center;strokeColor=#999999;" vertex="1" parent="1">
          <mxGeometry x="1156" y="760" width="60" height="40" as="geometry" />
        </mxCell>
        <mxCell id="31VXppEYrkeVyr3YHQmW-136" value="V_1+=" style="whiteSpace=wrap;html=1;strokeWidth=2;fillColor=#CCCCCC;gradientColor=none;fontSize=14;align=center;strokeColor=#999999;" vertex="1" parent="1">
          <mxGeometry x="1216" y="800" width="60" height="40" as="geometry" />
        </mxCell>
        <mxCell id="31VXppEYrkeVyr3YHQmW-137" value="ge+=" style="whiteSpace=wrap;html=1;strokeWidth=2;fillColor=#CCCCCC;gradientColor=none;fontSize=14;align=center;strokeColor=#999999;" vertex="1" parent="1">
          <mxGeometry x="1156" y="720" width="60" height="40" as="geometry" />
        </mxCell>
        <mxCell id="31VXppEYrkeVyr3YHQmW-138" value="Ie Ii乘法" style="whiteSpace=wrap;html=1;strokeWidth=2;fillColor=#CCCCCC;gradientColor=none;fontSize=14;align=center;strokeColor=#999999;" vertex="1" parent="1">
          <mxGeometry x="1216" y="760" width="60" height="40" as="geometry" />
        </mxCell>
        <mxCell id="31VXppEYrkeVyr3YHQmW-139" value="V_1+=" style="whiteSpace=wrap;html=1;strokeWidth=2;fillColor=#CCCCCC;gradientColor=none;fontSize=14;align=center;strokeColor=#999999;" vertex="1" parent="1">
          <mxGeometry x="1276" y="800" width="60" height="40" as="geometry" />
        </mxCell>
        <mxCell id="31VXppEYrkeVyr3YHQmW-140" value="ge+=" style="whiteSpace=wrap;html=1;strokeWidth=2;fillColor=#CCCCCC;gradientColor=none;fontSize=14;align=center;strokeColor=#999999;" vertex="1" parent="1">
          <mxGeometry x="1216" y="720" width="60" height="40" as="geometry" />
        </mxCell>
        <mxCell id="31VXppEYrkeVyr3YHQmW-141" value="Ie Ii乘法" style="whiteSpace=wrap;html=1;strokeWidth=2;fillColor=#CCCCCC;gradientColor=none;fontSize=14;align=center;strokeColor=#999999;" vertex="1" parent="1">
          <mxGeometry x="1276" y="760" width="60" height="40" as="geometry" />
        </mxCell>
        <mxCell id="31VXppEYrkeVyr3YHQmW-142" value="V_1+=" style="whiteSpace=wrap;html=1;strokeWidth=2;fillColor=#CCCCCC;gradientColor=none;fontSize=14;align=center;strokeColor=#999999;" vertex="1" parent="1">
          <mxGeometry x="1336" y="800" width="60" height="40" as="geometry" />
        </mxCell>
        <mxCell id="31VXppEYrkeVyr3YHQmW-143" value="Task 1" style="align=left;strokeColor=#CCCCCC;html=1;" vertex="1" parent="1">
          <mxGeometry x="280.0000000000003" y="589.9999999999998" width="319.9999999999997" height="20.000000000000014" as="geometry" />
        </mxCell>
        <mxCell id="31VXppEYrkeVyr3YHQmW-144" value="" style="align=left;strokeColor=#CCCCCC;html=1;" vertex="1" parent="1">
          <mxGeometry x="600" y="590" width="840" height="20" as="geometry" />
        </mxCell>
        <mxCell id="31VXppEYrkeVyr3YHQmW-145" value="W_Post" style="whiteSpace=wrap;html=1;strokeWidth=2;fillColor=#CCCCCC;gradientColor=none;fontSize=13;align=center;strokeColor=#999999;" vertex="1" parent="1">
          <mxGeometry x="600" y="590" width="60" height="20" as="geometry" />
        </mxCell>
        <mxCell id="31VXppEYrkeVyr3YHQmW-146" value="W_Post" style="whiteSpace=wrap;html=1;strokeWidth=2;fillColor=#CCCCCC;gradientColor=none;fontSize=13;align=center;strokeColor=#999999;" vertex="1" parent="1">
          <mxGeometry x="660" y="590" width="60" height="20" as="geometry" />
        </mxCell>
        <mxCell id="31VXppEYrkeVyr3YHQmW-147" value="W_Post" style="whiteSpace=wrap;html=1;strokeWidth=2;fillColor=#CCCCCC;gradientColor=none;fontSize=13;align=center;strokeColor=#999999;" vertex="1" parent="1">
          <mxGeometry x="720" y="590" width="60" height="20" as="geometry" />
        </mxCell>
        <mxCell id="31VXppEYrkeVyr3YHQmW-148" value="W_Post" style="whiteSpace=wrap;html=1;strokeWidth=2;fillColor=#CCCCCC;gradientColor=none;fontSize=13;align=center;strokeColor=#999999;" vertex="1" parent="1">
          <mxGeometry x="780" y="590" width="60" height="20" as="geometry" />
        </mxCell>
        <mxCell id="31VXppEYrkeVyr3YHQmW-151" value="Task 2" style="align=left;strokeColor=#CCCCCC;html=1;" vertex="1" parent="1">
          <mxGeometry x="280" y="610.0000000000002" width="320" height="20" as="geometry" />
        </mxCell>
        <mxCell id="31VXppEYrkeVyr3YHQmW-152" value="" style="align=left;strokeColor=#CCCCCC;html=1;" vertex="1" parent="1">
          <mxGeometry x="600" y="610" width="840" height="20" as="geometry" />
        </mxCell>
        <mxCell id="31VXppEYrkeVyr3YHQmW-153" value="out_W" style="whiteSpace=wrap;html=1;strokeWidth=2;fillColor=#CCCCCC;gradientColor=none;fontSize=14;align=center;strokeColor=#999999;" vertex="1" parent="1">
          <mxGeometry x="660" y="610" width="60" height="20" as="geometry" />
        </mxCell>
        <mxCell id="31VXppEYrkeVyr3YHQmW-154" value="out_W" style="whiteSpace=wrap;html=1;strokeWidth=2;fillColor=#CCCCCC;gradientColor=none;fontSize=14;align=center;strokeColor=#999999;" vertex="1" parent="1">
          <mxGeometry x="720" y="610" width="60" height="20" as="geometry" />
        </mxCell>
        <mxCell id="31VXppEYrkeVyr3YHQmW-155" value="out_W" style="whiteSpace=wrap;html=1;strokeWidth=2;fillColor=#CCCCCC;gradientColor=none;fontSize=14;align=center;strokeColor=#999999;" vertex="1" parent="1">
          <mxGeometry x="780" y="610" width="60" height="20" as="geometry" />
        </mxCell>
        <mxCell id="31VXppEYrkeVyr3YHQmW-156" value="out_W" style="whiteSpace=wrap;html=1;strokeWidth=2;fillColor=#CCCCCC;gradientColor=none;fontSize=14;align=center;strokeColor=#999999;" vertex="1" parent="1">
          <mxGeometry x="840" y="610" width="60" height="20" as="geometry" />
        </mxCell>
        <mxCell id="31VXppEYrkeVyr3YHQmW-158" value="on_spike" style="whiteSpace=wrap;html=1;strokeWidth=2;fillColor=#CCCCCC;gradientColor=none;fontSize=14;align=center;strokeColor=#999999;" vertex="1" parent="1">
          <mxGeometry x="540" y="390" width="60" height="20" as="geometry" />
        </mxCell>
        <mxCell id="31VXppEYrkeVyr3YHQmW-160" value="V_1&amp;gt;=Vth" style="whiteSpace=wrap;html=1;strokeWidth=2;fillColor=#CCCCCC;gradientColor=none;fontSize=14;align=center;strokeColor=#999999;" vertex="1" parent="1">
          <mxGeometry x="540" y="570" width="60" height="20" as="geometry" />
        </mxCell>
        <mxCell id="31VXppEYrkeVyr3YHQmW-165" value="in_W" style="whiteSpace=wrap;html=1;strokeWidth=2;fillColor=#CCCCCC;gradientColor=none;fontSize=13;align=center;strokeColor=#999999;" vertex="1" parent="1">
          <mxGeometry x="600" y="720" width="60" height="20" as="geometry" />
        </mxCell>
        <mxCell id="31VXppEYrkeVyr3YHQmW-166" value="in_W" style="whiteSpace=wrap;html=1;strokeWidth=2;fillColor=#CCCCCC;gradientColor=none;fontSize=13;align=center;strokeColor=#999999;" vertex="1" parent="1">
          <mxGeometry x="660" y="720" width="60" height="20" as="geometry" />
        </mxCell>
        <mxCell id="31VXppEYrkeVyr3YHQmW-167" value="in_W" style="whiteSpace=wrap;html=1;strokeWidth=2;fillColor=#CCCCCC;gradientColor=none;fontSize=13;align=center;strokeColor=#999999;" vertex="1" parent="1">
          <mxGeometry x="720" y="720" width="60" height="20" as="geometry" />
        </mxCell>
        <mxCell id="31VXppEYrkeVyr3YHQmW-168" value="in_W" style="whiteSpace=wrap;html=1;strokeWidth=2;fillColor=#CCCCCC;gradientColor=none;fontSize=13;align=center;strokeColor=#999999;" vertex="1" parent="1">
          <mxGeometry x="780" y="720" width="60" height="20" as="geometry" />
        </mxCell>
        <mxCell id="31VXppEYrkeVyr3YHQmW-169" value="V_1&amp;gt;=Vth" style="whiteSpace=wrap;html=1;strokeWidth=2;fillColor=#CCCCCC;gradientColor=none;fontSize=14;align=center;strokeColor=#999999;" vertex="1" parent="1">
          <mxGeometry x="540" y="700" width="60" height="20" as="geometry" />
        </mxCell>
        <mxCell id="31VXppEYrkeVyr3YHQmW-170" value="W+=" style="whiteSpace=wrap;html=1;strokeWidth=2;fillColor=#CCCCCC;gradientColor=none;fontSize=14;align=center;strokeColor=#999999;" vertex="1" parent="1">
          <mxGeometry x="720" y="450" width="60" height="20" as="geometry" />
        </mxCell>
        <mxCell id="31VXppEYrkeVyr3YHQmW-171" value="W+=" style="whiteSpace=wrap;html=1;strokeWidth=2;fillColor=#CCCCCC;gradientColor=none;fontSize=14;align=center;strokeColor=#999999;" vertex="1" parent="1">
          <mxGeometry x="780" y="450" width="60" height="20" as="geometry" />
        </mxCell>
        <mxCell id="31VXppEYrkeVyr3YHQmW-172" value="W+=" style="whiteSpace=wrap;html=1;strokeWidth=2;fillColor=#CCCCCC;gradientColor=none;fontSize=14;align=center;strokeColor=#999999;" vertex="1" parent="1">
          <mxGeometry x="840" y="450" width="60" height="20" as="geometry" />
        </mxCell>
        <mxCell id="31VXppEYrkeVyr3YHQmW-173" value="W+=" style="whiteSpace=wrap;html=1;strokeWidth=2;fillColor=#CCCCCC;gradientColor=none;fontSize=14;align=center;strokeColor=#999999;" vertex="1" parent="1">
          <mxGeometry x="900" y="450" width="60" height="20" as="geometry" />
        </mxCell>
        <mxCell id="31VXppEYrkeVyr3YHQmW-174" value="W_Post" style="whiteSpace=wrap;html=1;strokeWidth=2;fillColor=#CCCCCC;gradientColor=none;fontSize=14;align=center;strokeColor=#999999;" vertex="1" parent="1">
          <mxGeometry x="660" y="740" width="60" height="20" as="geometry" />
        </mxCell>
        <mxCell id="31VXppEYrkeVyr3YHQmW-175" value="W_Post" style="whiteSpace=wrap;html=1;strokeWidth=2;fillColor=#CCCCCC;gradientColor=none;fontSize=14;align=center;strokeColor=#999999;" vertex="1" parent="1">
          <mxGeometry x="720" y="740" width="60" height="20" as="geometry" />
        </mxCell>
        <mxCell id="31VXppEYrkeVyr3YHQmW-176" value="W_Post" style="whiteSpace=wrap;html=1;strokeWidth=2;fillColor=#CCCCCC;gradientColor=none;fontSize=14;align=center;strokeColor=#999999;" vertex="1" parent="1">
          <mxGeometry x="780" y="740" width="60" height="20" as="geometry" />
        </mxCell>
        <mxCell id="31VXppEYrkeVyr3YHQmW-177" value="W_Post" style="whiteSpace=wrap;html=1;strokeWidth=2;fillColor=#CCCCCC;gradientColor=none;fontSize=14;align=center;strokeColor=#999999;" vertex="1" parent="1">
          <mxGeometry x="840" y="740" width="60" height="20" as="geometry" />
        </mxCell>
        <mxCell id="31VXppEYrkeVyr3YHQmW-182" value="in_W" style="whiteSpace=wrap;html=1;strokeWidth=2;fillColor=#CCCCCC;gradientColor=none;fontSize=14;align=center;strokeColor=#999999;" vertex="1" parent="1">
          <mxGeometry x="610" y="420" width="60" height="20" as="geometry" />
        </mxCell>
        <mxCell id="31VXppEYrkeVyr3YHQmW-183" value="PRE" style="whiteSpace=wrap;html=1;strokeWidth=2;fillColor=#CCCCCC;gradientColor=none;fontSize=14;align=center;strokeColor=#999999;" vertex="1" parent="1">
          <mxGeometry x="670" y="440" width="60" height="20" as="geometry" />
        </mxCell>
        <mxCell id="31VXppEYrkeVyr3YHQmW-184" value="in_W" style="whiteSpace=wrap;html=1;strokeWidth=2;fillColor=#CCCCCC;gradientColor=none;fontSize=14;align=center;strokeColor=#999999;" vertex="1" parent="1">
          <mxGeometry x="670" y="420" width="60" height="20" as="geometry" />
        </mxCell>
        <mxCell id="31VXppEYrkeVyr3YHQmW-185" value="PRE" style="whiteSpace=wrap;html=1;strokeWidth=2;fillColor=#CCCCCC;gradientColor=none;fontSize=14;align=center;strokeColor=#999999;" vertex="1" parent="1">
          <mxGeometry x="730" y="440" width="60" height="20" as="geometry" />
        </mxCell>
        <mxCell id="31VXppEYrkeVyr3YHQmW-186" value="in_W" style="whiteSpace=wrap;html=1;strokeWidth=2;fillColor=#CCCCCC;gradientColor=none;fontSize=14;align=center;strokeColor=#999999;" vertex="1" parent="1">
          <mxGeometry x="730" y="420" width="60" height="20" as="geometry" />
        </mxCell>
        <mxCell id="31VXppEYrkeVyr3YHQmW-187" value="PRE" style="whiteSpace=wrap;html=1;strokeWidth=2;fillColor=#CCCCCC;gradientColor=none;fontSize=14;align=center;strokeColor=#999999;" vertex="1" parent="1">
          <mxGeometry x="790" y="440" width="60" height="20" as="geometry" />
        </mxCell>
        <mxCell id="31VXppEYrkeVyr3YHQmW-188" value="in_W" style="whiteSpace=wrap;html=1;strokeWidth=2;fillColor=#CCCCCC;gradientColor=none;fontSize=14;align=center;strokeColor=#999999;" vertex="1" parent="1">
          <mxGeometry x="790" y="420" width="60" height="20" as="geometry" />
        </mxCell>
        <mxCell id="31VXppEYrkeVyr3YHQmW-189" value="PRE" style="whiteSpace=wrap;html=1;strokeWidth=2;fillColor=#CCCCCC;gradientColor=none;fontSize=14;align=center;strokeColor=#999999;" vertex="1" parent="1">
          <mxGeometry x="850" y="440" width="60" height="20" as="geometry" />
        </mxCell>
        <mxCell id="31VXppEYrkeVyr3YHQmW-190" value="on_spike" style="whiteSpace=wrap;html=1;strokeWidth=2;fillColor=#CCCCCC;gradientColor=none;fontSize=14;align=center;strokeColor=#999999;" vertex="1" parent="1">
          <mxGeometry x="550" y="400" width="60" height="20" as="geometry" />
        </mxCell>
        <mxCell id="31VXppEYrkeVyr3YHQmW-191" value="W+=" style="whiteSpace=wrap;html=1;strokeWidth=2;fillColor=#CCCCCC;gradientColor=none;fontSize=14;align=center;strokeColor=#999999;" vertex="1" parent="1">
          <mxGeometry x="730" y="460" width="60" height="20" as="geometry" />
        </mxCell>
        <mxCell id="31VXppEYrkeVyr3YHQmW-192" value="W+=" style="whiteSpace=wrap;html=1;strokeWidth=2;fillColor=#CCCCCC;gradientColor=none;fontSize=14;align=center;strokeColor=#999999;" vertex="1" parent="1">
          <mxGeometry x="790" y="460" width="60" height="20" as="geometry" />
        </mxCell>
        <mxCell id="31VXppEYrkeVyr3YHQmW-193" value="W+=" style="whiteSpace=wrap;html=1;strokeWidth=2;fillColor=#CCCCCC;gradientColor=none;fontSize=14;align=center;strokeColor=#999999;" vertex="1" parent="1">
          <mxGeometry x="850" y="460" width="60" height="20" as="geometry" />
        </mxCell>
        <mxCell id="31VXppEYrkeVyr3YHQmW-194" value="W+=" style="whiteSpace=wrap;html=1;strokeWidth=2;fillColor=#CCCCCC;gradientColor=none;fontSize=14;align=center;strokeColor=#999999;" vertex="1" parent="1">
          <mxGeometry x="910" y="460" width="60" height="20" as="geometry" />
        </mxCell>
        <mxCell id="31VXppEYrkeVyr3YHQmW-195" value="in_W" style="whiteSpace=wrap;html=1;strokeWidth=2;fillColor=#CCCCCC;gradientColor=none;fontSize=13;align=center;strokeColor=#999999;" vertex="1" parent="1">
          <mxGeometry x="597" y="820" width="60" height="20" as="geometry" />
        </mxCell>
        <mxCell id="31VXppEYrkeVyr3YHQmW-196" value="in_W" style="whiteSpace=wrap;html=1;strokeWidth=2;fillColor=#CCCCCC;gradientColor=none;fontSize=13;align=center;strokeColor=#999999;" vertex="1" parent="1">
          <mxGeometry x="657" y="820" width="60" height="20" as="geometry" />
        </mxCell>
        <mxCell id="31VXppEYrkeVyr3YHQmW-197" value="in_W" style="whiteSpace=wrap;html=1;strokeWidth=2;fillColor=#CCCCCC;gradientColor=none;fontSize=13;align=center;strokeColor=#999999;" vertex="1" parent="1">
          <mxGeometry x="717" y="820" width="60" height="20" as="geometry" />
        </mxCell>
        <mxCell id="31VXppEYrkeVyr3YHQmW-198" value="in_W" style="whiteSpace=wrap;html=1;strokeWidth=2;fillColor=#CCCCCC;gradientColor=none;fontSize=13;align=center;strokeColor=#999999;" vertex="1" parent="1">
          <mxGeometry x="777" y="820" width="60" height="20" as="geometry" />
        </mxCell>
        <mxCell id="31VXppEYrkeVyr3YHQmW-199" value="on_spike" style="whiteSpace=wrap;html=1;strokeWidth=2;fillColor=#CCCCCC;gradientColor=none;fontSize=14;align=center;strokeColor=#999999;" vertex="1" parent="1">
          <mxGeometry x="537" y="800" width="60" height="20" as="geometry" />
        </mxCell>
        <mxCell id="31VXppEYrkeVyr3YHQmW-200" value="W_Pre" style="whiteSpace=wrap;html=1;strokeWidth=2;fillColor=#CCCCCC;gradientColor=none;fontSize=14;align=center;strokeColor=#999999;" vertex="1" parent="1">
          <mxGeometry x="657" y="840" width="60" height="20" as="geometry" />
        </mxCell>
        <mxCell id="31VXppEYrkeVyr3YHQmW-201" value="W_Pre" style="whiteSpace=wrap;html=1;strokeWidth=2;fillColor=#CCCCCC;gradientColor=none;fontSize=14;align=center;strokeColor=#999999;" vertex="1" parent="1">
          <mxGeometry x="717" y="840" width="60" height="20" as="geometry" />
        </mxCell>
        <mxCell id="31VXppEYrkeVyr3YHQmW-202" value="W_Pre" style="whiteSpace=wrap;html=1;strokeWidth=2;fillColor=#CCCCCC;gradientColor=none;fontSize=14;align=center;strokeColor=#999999;" vertex="1" parent="1">
          <mxGeometry x="777" y="840" width="60" height="20" as="geometry" />
        </mxCell>
        <mxCell id="31VXppEYrkeVyr3YHQmW-203" value="W_Pre" style="whiteSpace=wrap;html=1;strokeWidth=2;fillColor=#CCCCCC;gradientColor=none;fontSize=14;align=center;strokeColor=#999999;" vertex="1" parent="1">
          <mxGeometry x="837" y="840" width="60" height="20" as="geometry" />
        </mxCell>
        <mxCell id="31VXppEYrkeVyr3YHQmW-204" value="W*" style="whiteSpace=wrap;html=1;strokeWidth=2;fillColor=#CCCCCC;gradientColor=none;fontSize=13;align=center;strokeColor=#999999;" vertex="1" parent="1">
          <mxGeometry x="976" y="680" width="60" height="40" as="geometry" />
        </mxCell>
        <mxCell id="31VXppEYrkeVyr3YHQmW-205" value="W*" style="whiteSpace=wrap;html=1;strokeWidth=2;fillColor=#CCCCCC;gradientColor=none;fontSize=13;align=center;strokeColor=#999999;" vertex="1" parent="1">
          <mxGeometry x="1036" y="680" width="60" height="40" as="geometry" />
        </mxCell>
        <mxCell id="31VXppEYrkeVyr3YHQmW-206" value="W*" style="whiteSpace=wrap;html=1;strokeWidth=2;fillColor=#CCCCCC;gradientColor=none;fontSize=13;align=center;strokeColor=#999999;" vertex="1" parent="1">
          <mxGeometry x="1096" y="680" width="60" height="40" as="geometry" />
        </mxCell>
        <mxCell id="31VXppEYrkeVyr3YHQmW-207" value="W*" style="whiteSpace=wrap;html=1;strokeWidth=2;fillColor=#CCCCCC;gradientColor=none;fontSize=13;align=center;strokeColor=#999999;" vertex="1" parent="1">
          <mxGeometry x="1156" y="680" width="60" height="40" as="geometry" />
        </mxCell>
        <mxCell id="31VXppEYrkeVyr3YHQmW-208" value="&lt;font style=&quot;font-size: 11px;&quot;&gt;on_spike &amp;amp;w_updata&lt;/font&gt;" style="whiteSpace=wrap;html=1;strokeWidth=2;fillColor=#CCCCCC;gradientColor=none;fontSize=14;align=center;strokeColor=#999999;" vertex="1" parent="1">
          <mxGeometry x="916" y="640" width="60" height="40" as="geometry" />
        </mxCell>
      </root>
    </mxGraphModel>
  </diagram>
</mxfile>
